<?xml version="1.0" encoding="UTF-8" standalone="no"?>
<!DOCTYPE svg PUBLIC "-//W3C//DTD SVG 1.1//EN" "http://www.w3.org/Graphics/SVG/1.1/DTD/svg11.dtd">
<svg width="100%" height="100%" viewBox="0 0 894 225" version="1.1" xmlns="http://www.w3.org/2000/svg" xmlns:xlink="http://www.w3.org/1999/xlink" xml:space="preserve" xmlns:serif="http://www.serif.com/" style="fill-rule:evenodd;clip-rule:evenodd;stroke-linejoin:round;stroke-miterlimit:2;">
    <g id="Artboard1" transform="matrix(0.998465,0,0,1.01034,-169.4,-197.636)">
        <rect x="169.661" y="195.613" width="894.491" height="221.794" style="fill:none;"/>
        <g id="JavaScript-and-TypeScript-Tooling-Overview-" serif:id="JavaScript and TypeScript Tooling Overview " transform="matrix(1.00154,0,0,0.989763,0.400716,-6.44848)">
            <path d="M548.509,338.994C548.176,343.329 547.954,348.433 547.954,356.642L547.954,391.494C547.954,403.703 546.955,426.234 517.986,426.234C510.883,426.234 503.446,424.68 498.673,421.795L501.559,411.805C505.333,414.025 511.216,416.134 518.097,416.134C528.086,416.134 535.19,410.584 535.19,396.71L535.19,390.828L534.968,390.828C531.86,396.044 525.867,399.818 517.986,399.818C503.557,399.818 493.679,387.054 493.679,369.961C493.679,349.205 506.221,337.662 519.54,337.662C528.641,337.662 533.747,342.324 536.3,347.208L536.522,347.208L537.077,338.994L548.509,338.994ZM331.507,337.662C315.303,337.662 302.649,349.316 302.649,369.961C302.649,389.718 314.748,401.372 330.619,401.372C344.382,401.372 359.255,391.938 359.255,369.073C359.255,350.315 348.267,337.662 331.507,337.662ZM266.018,337.662C249.813,337.662 237.16,349.316 237.16,369.961C237.16,389.718 249.258,401.372 265.13,401.372C278.893,401.372 293.766,391.938 293.766,369.073C293.766,350.315 282.778,337.662 266.018,337.662ZM621.992,313.91C600.237,313.91 585.364,331.447 585.364,358.196C585.364,383.835 599.238,401.372 620.882,401.372C641.526,401.372 657.398,386.388 657.398,356.864C657.398,332.446 644.523,313.91 621.992,313.91ZM771.062,388.608C767.066,390.273 762.405,391.494 755.634,391.494C745.978,391.494 737.431,386.277 737.098,372.514L775.946,372.514C776.168,370.96 776.279,369.184 776.279,367.075C776.279,351.98 769.397,337.662 752.193,337.662C734.879,337.662 724.667,352.202 724.667,370.405C724.667,389.052 735.323,401.372 753.747,401.372C762.072,401.372 768.842,399.707 773.171,397.709L771.062,388.608ZM959.982,388.608C955.986,390.273 951.325,391.494 944.554,391.494C934.898,391.494 926.351,386.277 926.018,372.514L964.866,372.514C965.088,370.96 965.199,369.184 965.199,367.075C965.199,351.98 958.317,337.662 941.113,337.662C923.798,337.662 913.587,352.202 913.587,370.405C913.587,389.052 924.242,401.372 942.667,401.372C950.992,401.372 957.762,399.707 962.091,397.709L959.982,388.608ZM442.507,348.096C445.398,342.874 451.834,337.662 461.043,337.662C470.588,337.662 481.243,343.878 481.243,362.747L481.243,400.151L468.368,400.151L468.368,364.3C468.368,355.643 465.482,348.318 456.714,348.318C450.387,348.318 443.617,353.534 443.617,363.302L443.617,400.151L430.742,400.151L430.742,356.198C430.742,349.431 430.52,344.217 430.298,338.994L441.508,338.994L442.174,348.096L442.507,348.096ZM984.626,338.994L991.397,368.296C992.84,374.845 994.283,381.393 995.393,387.831L995.615,387.831C996.837,381.498 998.723,374.731 1000.5,368.407L1008.93,338.994L1019.48,338.994L1027.47,367.741C1029.36,374.845 1031.02,381.393 1032.24,387.831L1032.58,387.831C1033.58,381.498 1035.02,374.953 1036.68,367.852L1043.79,338.994L1056.55,338.994L1038.01,400.151L1026.36,400.151L1018.48,373.069C1016.59,366.631 1015.26,360.749 1013.93,353.534L1013.6,353.534C1012.37,360.86 1010.71,367.075 1008.82,373.18L1000.5,400.151L988.844,400.151L971.307,338.994L984.626,338.994ZM800.368,350.204C803.147,342.432 809.583,337.662 816.24,337.662C817.461,337.662 818.349,337.773 819.459,337.995L819.459,350.315C818.349,350.093 817.128,349.982 815.685,349.982C807.028,349.982 801.589,357.086 801.589,367.741L801.589,400.151L788.714,400.151L788.714,357.641C788.714,350.542 788.603,344.662 788.27,338.994L799.48,338.994L799.924,350.204L800.368,350.204ZM232.163,315.242L232.163,326.23L209.187,326.23L209.187,400.151L196.312,400.151L196.312,326.23L173.448,326.23L173.448,315.242L232.163,315.242ZM384.899,311.135L384.899,400.151L372.024,400.151L372.024,311.135L384.899,311.135ZM900.821,338.883L900.821,400.151L887.946,400.151L887.946,338.883L900.821,338.883ZM836.553,338.994L846.543,371.515C848.207,376.843 849.539,381.948 850.649,387.054L850.982,387.054C852.094,381.942 853.536,376.95 855.089,371.626L864.967,338.994L878.397,338.994L856.421,400.151L844.101,400.151L822.679,338.994L836.553,338.994ZM414.202,338.883L414.202,400.151L401.327,400.151L401.327,338.883L414.202,338.883ZM677.048,338.994L687.038,371.515C688.703,376.843 690.034,381.948 691.144,387.054L691.477,387.054C692.589,381.942 694.031,376.95 695.584,371.626L705.462,338.994L718.893,338.994L696.916,400.151L684.596,400.151L663.174,338.994L677.048,338.994ZM346.047,369.406C346.047,381.615 340.276,391.716 330.952,391.716C321.518,391.716 315.857,381.615 315.857,369.628C315.857,359.084 320.075,347.319 331.063,347.319C341.83,347.319 346.047,359.306 346.047,369.406ZM280.558,369.406C280.558,381.615 274.786,391.716 265.463,391.716C256.028,391.716 250.368,381.615 250.368,369.628C250.368,359.084 254.586,347.319 265.574,347.319C276.34,347.319 280.558,359.306 280.558,369.406ZM621.548,324.454C636.754,324.454 643.857,341.103 643.857,357.308C643.857,375.4 636.199,390.828 621.326,390.828C606.675,390.828 598.905,375.067 598.905,357.863C598.905,341.214 605.898,324.454 621.548,324.454ZM535.079,374.623C535.079,384.834 528.419,389.94 521.76,389.94C512.214,389.94 506.776,381.393 506.776,369.406C506.776,356.309 512.991,347.874 521.871,347.874C529.751,347.874 535.079,354.533 535.079,362.636L535.079,374.623ZM952.989,363.302C953.098,355.968 950.099,346.875 940.225,346.875C930.791,346.875 926.795,356.198 926.129,363.302L952.989,363.302ZM764.07,363.302C764.178,355.968 761.179,346.875 751.305,346.875C741.871,346.875 737.875,356.198 737.209,363.302L764.07,363.302ZM415.312,322.123C415.312,317.795 412.315,314.576 407.875,314.576C403.436,314.576 400.328,317.795 400.328,322.123C400.328,326.23 403.325,329.56 407.764,329.56C412.426,329.56 415.312,326.23 415.312,322.123ZM901.931,322.123C901.931,317.795 898.934,314.576 894.495,314.576C890.055,314.576 886.947,317.795 886.947,322.123C886.947,326.23 889.944,329.56 894.384,329.56C899.045,329.56 901.931,326.23 901.931,322.123ZM741.887,225.073L749.488,248.634C750.324,251.37 751.16,254.562 751.768,256.994L751.996,256.994C752.606,254.556 753.441,251.443 754.2,248.634L760.964,225.073L770.237,225.073L760.128,254.106C755.188,267.863 751.692,275.615 746.675,280.48C742.875,283.976 738.999,285.42 736.947,285.876L734.667,278.428C743.787,275.159 747.056,266.647 747.056,265.507C747.056,265.051 746.98,264.519 746.6,263.683L732.235,225.073L741.887,225.073ZM784.523,231.457C787.416,226.742 791.975,224.161 797.823,224.161C807.248,224.161 814.316,232.521 814.316,245.518C814.316,260.871 805.424,267.787 796.607,267.787C791.591,267.787 787.487,265.431 785.435,262.011L785.283,262.011L785.283,283.9L776.466,283.9L776.466,238.601C776.466,233.134 776.314,228.804 776.162,225.073L783.915,225.073L784.371,231.457L784.523,231.457ZM463.123,231.457C466.017,226.742 470.575,224.161 476.424,224.161C485.848,224.161 492.917,232.521 492.917,245.518C492.917,260.871 484.024,267.787 475.208,267.787C470.191,267.787 466.087,265.431 464.035,262.011L463.883,262.011L463.883,283.9L455.067,283.9L455.067,238.601C455.067,233.134 454.915,228.804 454.763,225.073L462.515,225.073L462.971,231.457L463.123,231.457ZM997.396,231.457C1000.29,226.742 1004.85,224.161 1010.7,224.161C1020.12,224.161 1027.19,232.521 1027.19,245.518C1027.19,260.871 1018.3,267.787 1009.48,267.787C1004.46,267.787 1000.36,265.431 998.308,262.011L998.156,262.011L998.156,283.9L989.34,283.9L989.34,238.601C989.34,233.134 989.188,228.804 989.035,225.073L996.788,225.073L997.244,231.457L997.396,231.457ZM197.964,208.732L197.964,247.646C197.964,262.999 190.667,267.787 180.483,267.787C177.823,267.787 174.706,267.331 172.882,266.647L173.946,259.351C175.391,259.883 177.367,260.263 179.723,260.263C185.575,260.263 189.147,257.678 189.147,247.342L189.147,208.732L197.964,208.732ZM667.715,205.996L667.715,255.778C667.715,259.579 667.867,264.063 668.019,266.951L660.267,266.951L659.811,260.415L659.583,260.415C657.378,264.671 652.818,267.787 646.89,267.787C637.389,267.787 630.169,259.351 630.169,246.43C630.169,232.217 638.302,224.161 647.65,224.161C653.046,224.161 656.923,226.593 658.747,229.785L658.899,229.785L658.899,205.996L667.715,205.996ZM503.327,225.073L503.327,217.472L512.067,214.736L512.067,225.073L522.024,225.073L522.024,231.685L512.067,231.685L512.067,252.89C512.067,258.059 513.663,260.567 517.387,260.567C519.135,260.567 520.2,260.339 521.264,260.035L521.568,266.799C520.048,267.407 517.691,267.787 514.727,267.787C511.231,267.787 508.267,266.647 506.443,264.595C504.315,262.315 503.327,258.819 503.327,253.346L503.327,231.685L497.398,231.685L497.398,225.073L503.327,225.073ZM1037.6,225.073L1037.6,217.472L1046.34,214.736L1046.34,225.073L1056.3,225.073L1056.3,231.685L1046.34,231.685L1046.34,252.89C1046.34,258.059 1047.94,260.567 1051.66,260.567C1053.41,260.567 1054.47,260.339 1055.54,260.035L1055.84,266.799C1054.32,267.407 1051.96,267.787 1049,267.787C1045.5,267.787 1042.54,266.647 1040.72,264.595C1038.59,262.315 1037.6,258.819 1037.6,253.346L1037.6,231.685L1031.67,231.685L1031.67,225.073L1037.6,225.073ZM932.19,259.047C930.214,259.883 927.782,260.719 924.286,260.719C916.99,260.719 911.593,255.246 911.593,246.05C911.593,237.841 916.154,231.153 924.362,231.153C927.934,231.153 930.366,232.065 931.887,232.825L933.635,226.061C931.811,225.149 928.314,224.161 924.286,224.161C910.833,224.161 902.625,233.737 902.625,246.43C902.625,259.503 910.529,267.787 922.614,267.787C927.478,267.787 931.431,266.571 933.407,265.659L932.19,259.047ZM238.396,241.186C238.396,232.293 234.975,224.161 222.663,224.161C217.038,224.161 212.098,225.757 209.134,227.657L210.958,233.509C213.618,231.761 217.419,230.621 221.143,230.621C229.579,230.621 229.579,236.853 229.579,239.97C215.214,239.97 206.17,245.138 206.17,255.55C206.17,262.011 210.654,267.787 218.483,267.787C223.727,267.787 227.831,265.355 230.187,262.087L230.415,262.087L231.023,266.951L239.004,266.951C238.472,264.215 238.396,260.567 238.396,256.994L238.396,241.186ZM318.879,241.186C318.879,232.293 315.459,224.161 303.146,224.161C297.522,224.161 292.582,225.757 289.617,227.657L291.441,233.509C294.102,231.761 297.902,230.621 301.626,230.621C310.062,230.621 310.062,236.853 310.062,239.97C295.698,239.97 286.653,245.138 286.653,255.55C286.653,262.011 291.137,267.787 298.966,267.787C304.21,267.787 308.314,265.355 310.67,262.087L310.899,262.087L311.507,266.951L319.487,266.951C318.955,264.215 318.879,260.567 318.879,256.994L318.879,241.186ZM575.983,241.186C575.983,232.293 572.563,224.161 560.25,224.161C554.626,224.161 549.686,225.757 546.722,227.657L548.546,233.509C551.206,231.761 555.006,230.621 558.73,230.621C567.167,230.621 567.167,236.853 567.167,239.97C552.802,239.97 543.757,245.138 543.757,255.55C543.757,262.011 548.242,267.787 556.07,267.787C561.314,267.787 565.419,265.355 567.775,262.087L568.003,262.087L568.611,266.951L576.591,266.951C576.059,264.215 575.983,260.567 575.983,256.994L575.983,241.186ZM852.164,259.047C849.428,260.187 846.235,261.023 841.599,261.023C834.987,261.023 829.135,257.45 828.906,248.026L855.508,248.026C855.66,246.962 855.736,245.746 855.736,244.302C855.736,233.965 851.024,224.161 839.243,224.161C827.386,224.161 820.394,234.117 820.394,246.582C820.394,259.351 827.69,267.787 840.307,267.787C846.007,267.787 850.644,266.647 853.608,265.279L852.164,259.047ZM894.04,210.556C891.532,209.264 887.351,207.896 881.803,207.896C870.25,207.896 862.878,214.812 862.878,224.009C862.878,231.913 868.73,237.157 877.395,240.654C884.311,243.542 887.275,246.582 887.275,251.522C887.275,256.766 883.399,260.339 876.483,260.339C871.695,260.339 866.982,258.819 863.866,256.918L861.89,264.291C864.702,266.191 870.478,267.787 875.951,267.787C889.023,267.787 896.244,260.491 896.244,250.762C896.244,242.782 891.76,237.689 882.411,233.585C875.039,230.393 871.771,227.961 871.771,223.021C871.771,219.296 874.659,215.268 881.575,215.268C886.363,215.268 890.012,216.788 891.912,217.852L894.04,210.556ZM397.918,259.047C395.941,259.883 393.509,260.719 390.013,260.719C382.717,260.719 377.32,255.246 377.32,246.05C377.32,237.841 381.881,231.153 390.089,231.153C393.661,231.153 396.093,232.065 397.614,232.825L399.362,226.061C397.538,225.149 394.041,224.161 390.013,224.161C376.56,224.161 368.352,233.737 368.352,246.43C368.352,259.503 376.256,267.787 388.341,267.787C393.205,267.787 397.158,266.571 399.134,265.659L397.918,259.047ZM359.767,210.556C357.259,209.264 353.078,207.896 347.53,207.896C335.977,207.896 328.605,214.812 328.605,224.009C328.605,231.913 334.457,237.157 343.122,240.654C350.038,243.542 353.002,246.582 353.002,251.522C353.002,256.766 349.126,260.339 342.21,260.339C337.422,260.339 332.709,258.819 329.593,256.918L327.617,264.291C330.429,266.191 336.206,267.787 341.678,267.787C354.751,267.787 361.971,260.491 361.971,250.762C361.971,242.782 357.487,237.689 348.138,233.585C340.766,230.393 337.498,227.961 337.498,223.021C337.498,219.296 340.386,215.268 347.302,215.268C352.09,215.268 355.739,216.788 357.639,217.852L359.767,210.556ZM978.016,224.997L978.016,266.951L969.2,266.951L969.2,224.997L978.016,224.997ZM595.134,231.305C597.117,227.727 601.523,224.161 607.826,224.161C614.363,224.161 621.659,228.417 621.659,241.338L621.659,266.951L612.843,266.951L612.843,242.402C612.843,236.473 610.867,231.457 604.862,231.457C600.53,231.457 595.894,235.029 595.894,241.718L595.894,266.951L587.077,266.951L587.077,236.853C587.077,232.221 586.926,228.651 586.773,225.073L594.45,225.073L594.906,231.305L595.134,231.305ZM254.354,225.073L261.195,247.342C262.335,250.99 263.247,254.486 264.007,257.982L264.235,257.982C264.996,254.481 265.984,251.063 267.047,247.418L273.811,225.073L283.008,225.073L267.959,266.951L259.522,266.951L244.854,225.073L254.354,225.073ZM731.022,208.808L731.022,216.332L715.289,216.332L715.289,266.951L706.473,266.951L706.473,216.332L690.816,216.332L690.816,208.808L731.022,208.808ZM443.743,224.997L443.743,266.951L434.927,266.951L434.927,224.997L443.743,224.997ZM415.016,232.749C416.921,227.425 421.327,224.161 425.884,224.161C426.721,224.161 427.328,224.237 428.089,224.389L428.089,232.825C427.328,232.673 426.492,232.597 425.504,232.597C419.576,232.597 415.852,237.461 415.852,244.758L415.852,266.951L407.035,266.951L407.035,237.841C407.035,232.981 406.96,228.955 406.731,225.073L414.408,225.073L414.712,232.749L415.016,232.749ZM949.289,232.749C951.194,227.425 955.6,224.161 960.157,224.161C960.993,224.161 961.601,224.237 962.362,224.389L962.362,232.825C961.601,232.673 960.765,232.597 959.777,232.597C953.849,232.597 950.125,237.461 950.125,244.758L950.125,266.951L941.308,266.951L941.308,237.841C941.308,232.981 941.232,228.955 941.004,225.073L948.681,225.073L948.985,232.749L949.289,232.749ZM310.29,252.814C310.29,257.678 306.338,261.327 301.55,261.327C298.282,261.327 295.394,259.275 295.394,254.638C295.394,247.19 303.374,245.898 310.29,245.898L310.29,252.814ZM229.807,252.814C229.807,257.678 225.855,261.327 221.067,261.327C217.799,261.327 214.91,259.275 214.91,254.638C214.91,247.19 222.891,245.898 229.807,245.898L229.807,252.814ZM567.395,252.814C567.395,257.678 563.442,261.327 558.654,261.327C555.386,261.327 552.498,259.275 552.498,254.638C552.498,247.19 560.478,245.898 567.395,245.898L567.395,252.814ZM463.883,242.326C463.883,236.169 468.367,231.229 473.612,231.229C480.376,231.229 483.948,237.841 483.948,245.822C483.948,254.486 480.224,260.795 473.384,260.795C469.051,260.795 463.883,257.602 463.883,250.078L463.883,242.326ZM998.156,242.326C998.156,236.169 1002.64,231.229 1007.88,231.229C1014.65,231.229 1018.22,237.841 1018.22,245.822C1018.22,254.486 1014.5,260.795 1007.66,260.795C1003.32,260.795 998.156,257.602 998.156,250.078L998.156,242.326ZM785.283,242.326C785.283,236.169 789.767,231.229 795.011,231.229C801.776,231.229 805.348,237.841 805.348,245.822C805.348,254.486 801.624,260.795 794.783,260.795C790.451,260.795 785.283,257.602 785.283,250.078L785.283,242.326ZM658.899,249.774C658.899,255.626 655.174,260.643 649.474,260.643C642.786,260.643 639.137,254.334 639.137,246.126C639.137,237.841 642.862,231.153 649.626,231.153C654.566,231.153 658.899,235.181 658.899,242.022L658.899,249.774ZM847.375,241.718C847.449,236.694 845.395,230.469 838.635,230.469C832.175,230.469 829.439,236.853 828.982,241.718L847.375,241.718ZM444.503,213.52C444.503,210.556 442.451,208.352 439.411,208.352C436.371,208.352 434.243,210.556 434.243,213.52C434.243,216.332 436.295,218.612 439.335,218.612C442.527,218.612 444.503,216.332 444.503,213.52ZM978.776,213.52C978.776,210.556 976.724,208.352 973.684,208.352C970.644,208.352 968.516,210.556 968.516,213.52C968.516,216.332 970.568,218.612 973.608,218.612C976.8,218.612 978.776,216.332 978.776,213.52Z" style="fill:white;fill-opacity:0.8;"/>
        </g>
    </g>
</svg>
